# xmcd
#
# Track frame offsets: 
#        159
#        20836
#        36224
#        53520
#        68670
#        84641
#        97605
#        111655
#        128002
#        141192
#        153630
#        166837
#        179656
#        198522
#        212849
#        228245
#        244121
#        261442
#
# Disc length: 3711 seconds
#
# Revision: 0
# Processed by: cddbd v1.5.2PL0 Copyright (c) Steve Scherf et al.
# Submitted via: ExactAudioCopy v0.99pb4
#
DISCID=fe0e7d12
DTITLE=Rod Stewart - 2010' Fly Me To The Moon (Great American Songbook
DTITLE=) Vol.5  (DeLuxe Version)
DYEAR=2010
DGENRE=Musical
TTITLE0=That Old Black Magic
TTITLE1=Beyond The Sea
TTITLE2=I've Got You Under My Skin
TTITLE3=What A Difference A Day Makes
TTITLE4=I Get A Kick Out Of You
TTITLE5=I've Got The World On A String
TTITLE6=My Foolish Heart
TTITLE7=Love Me Or Leave Me
TTITLE8=September In The Rain
TTITLE9=Fly Me To The Moon
TTITLE10=On The Sunny Side Of The Street
TTITLE11=Moon River
TTITLE12=Bye Bye Blackbird
TTITLE13=All Of Me
TTITLE14=She's Funny That Way
TTITLE15=Cheek To Cheek
TTITLE16=Ain't Misbehavin'
TTITLE17=When I Fall In Love
EXTD=Deluxe Version
EXTT0=
EXTT1=
EXTT2=
EXTT3=
EXTT4=
EXTT5=
EXTT6=
EXTT7=
EXTT8=
EXTT9=
EXTT10=
EXTT11=
EXTT12=
EXTT13=
EXTT14=
EXTT15=
EXTT16=
EXTT17=
PLAYORDER=
